Full Credits to (Pitic):

 ######## ######## ######## ##          ######## ########  ######## ######
 ##       ##       ##       ##          ##       ##     ## ##       ##       
 ##       ##       ##       ##          ##       ##     ## ##       ##       
 ######   ######   ######   ##          ######   ########  ######   ######   
 ##       ##       ##       ##          ##       ##   ##   ##       ##       
 ##       ##       ##       ##          ##       ##    ##  ##       ##       
 ##       ######## ######## ########    ##       ##     ## ######## ######


Genre:Animation | Action | Adventure 
 Language:English
 IMDb: 
http://www.imdb.com/title/tt1683043/
 Source:NTSC.DVDR-STOCK Thanks!

 Format : AVI
 Format/Info : Audio Video Interleave
 File size : 1.16 GiB
 Duration : 1h 45mn
 Overall bit rate : 1 580 Kbps

 Video
 ID : 0
 Format : MPEG-4 Visual
 Format profile : Advanced Simple@L5
 Format settings, BVOP : Yes
 Format settings, QPel : No
 Format settings, GMC : No warppoints
 Format settings, Matrix : Default (H.263)
 Codec ID : XVID
 Codec ID/Hint : XviD
 Duration : 1h 45mn
 Bit rate : 1 266 Kbps
 Width : 640 pixels
 Height : 360 pixels
 Display aspect ratio : 16:9
 Frame rate : 23.976 fps
 Color space : YUV
 Chroma subsampling : 4:2:0
 Bit depth : 8 bits
 Scan type : Progressive
 Bits/(Pixel*Frame) : 0.229
 Stream size : 953 MiB (80%)
 Writing library : XviD 1.2.1 (UTC 2008-12-04)

 Audio
 ID : 1
 Format : AC-3
 Format/Info : Audio Coding 3
 Mode extension : CM (complete main)
 Codec ID : 2000
 Duration : 1h 23mn
 Bit rate mode : Constant
 Bit rate : 384 Kbps
 Channel(s) : 6 channels
 Channel positions : Front: L C R, Side: L R, LFE
 Sampling rate : 48.0 KHz
 Bit depth : 16 bits
 Stream size : 230 MiB (19%)
 Alignment : Aligned on interleaves
 Interleave, duration : 52 ms (1.26 video frame)
 Interleave, preload duration : 512 ms


 Plot:
 As the home planet of the Green Lantern Corps faces a battle with an ancient enemy, Hal Jordan prepares new recruit Arisia for the coming conflict by relating stories of the first Green Lantern and several of Hal's comrades.



Greets:

 INK,CRYS,IMAGINE,LKRG,FXG,3Li,FLAWL3SS,TA,iLLUSiON,ViSiON,DTRG SAFCuk009,LU,TheFalcon007,MYSTiC,PrisM,Noir,WBZ,LAP,Rx,Kingdom,SAFCuk009+Fabreezy,HDLiTE,TWiZTED,ExtraTorrentRG.ELEKTRI4KA,MAGNAT,CM8
 And to all the other p2p grps past and present




================================== 
http://thepiratebay.org/user/hiest
==================================




Screenshots:
 
http://leetleech.org/images/78262560398816056004.png
 
http://leetleech.org/images/18000848590256447266.png
 
http://leetleech.org/images/02551234056790794902.png
 
http://leetleech.org/images/67084444033366901568.png
 
http://leetleech.org/images/24030668945071938650.png


Full Credits to (Pitic):

 ######## ######## ######## ##          ######## ########  ######## ######
 ##       ##       ##       ##          ##       ##     ## ##       ##       
 ##       ##       ##       ##          ##       ##     ## ##       ##       
 ######   ######   ######   ##          ######   ########  ######   ######   
 ##       ##       ##       ##          ##       ##   ##   ##       ##       
 ##       ##       ##       ##          ##       ##    ##  ##       ##       
 ##       ######## ######## ########    ##       ##     ## ######## ######